# xmcd
#
# Track frame offsets: 
#        150
#        14088
#        29682
#        47952
#        64880
#        92426
#        108541
#        128645
#        143150
#
# Disc length: 2159 seconds
#
# Revision: 1
# Processed by: cddbd v1.5.2PL0 Copyright (c) Steve Scherf et al.
# Submitted via: ExactAudioCopy v0.99pb4
#
DISCID=80086d09
DTITLE=Iztok Mlakar - Romance brez krjance
DYEAR=2008
DGENRE=Cabaret
TTITLE0=Oda
TTITLE1=Bose noge
TTITLE2=Pismo
TTITLE3=Furlanka
TTITLE4=Zena al flasa
TTITLE5=Pokora
TTITLE6=Truckin' rap
TTITLE7=Bogatasev song
TTITLE8=Ocenas
EXTD=
EXTT0=
EXTT1=
EXTT2=
EXTT3=
EXTT4=
EXTT5=
EXTT6=
EXTT7=
EXTT8=
PLAYORDER=
